<?xml version="1.0" standalone="no"?>
<!DOCTYPE svg PUBLIC "-//W3C//DTD SVG 20010904//EN"
 "http://www.w3.org/TR/2001/REC-SVG-20010904/DTD/svg10.dtd">
<svg version="1.0" xmlns="http://www.w3.org/2000/svg"
 width="242.000000pt" height="243.000000pt" viewBox="0 0 242.000000 243.000000"
 preserveAspectRatio="xMidYMid meet">

<g transform="translate(0.000000,243.000000) scale(0.100000,-0.100000)"
fill="#000000" stroke="none">
<path d="M963 2165 c-144 -39 -286 -120 -401 -229 -125 -119 -207 -252 -259
-423 -24 -80 -27 -104 -27 -253 -1 -143 2 -176 22 -250 72 -262 251 -479 497
-600 148 -73 226 -90 415 -90 190 0 267 17 415 89 272 134 464 390 516 687 17
95 6 320 -19 404 -47 159 -117 281 -226 397 -125 132 -298 236 -457 272 -67
16 -414 12 -476 -4z m425 -50 c162 -34 301 -106 419 -219 123 -116 194 -229
249 -396 25 -78 28 -98 28 -240 1 -171 -12 -237 -73 -373 -105 -234 -328 -420
-586 -488 -113 -31 -317 -31 -430 0 -373 99 -639 421 -662 802 -16 265 79 504
274 690 120 115 259 189 418 224 83 18 278 18 363 0z"/>
<path d="M1127 2064 c-4 -4 -7 -18 -7 -31 0 -23 3 -24 58 -21 53 3 57 5 57 28
0 23 -4 25 -50 28 -28 2 -54 0 -58 -4z"/>
<path d="M942 2026 c-297 -97 -517 -383 -548 -711 -5 -56 -3 -73 9 -83 34 -28
56 6 57 88 0 73 28 169 75 265 92 188 232 311 440 385 61 22 70 28 70 50 0 33
-16 34 -103 6z"/>
<path d="M1142 1803 c-41 -20 -69 -54 -84 -104 -15 -53 1 -104 47 -149 34 -33
40 -35 105 -35 65 0 71 2 104 34 43 42 60 89 51 139 -19 102 -132 160 -223
115z m136 -79 c25 -28 30 -88 9 -115 -34 -45 -92 -50 -136 -13 -50 42 -41 117
17 149 36 20 81 11 110 -21z"/>
<path d="M992 1426 c-36 -20 -62 -66 -62 -113 0 -51 44 -108 90 -118 l30 -7 0
-216 c0 -198 2 -219 21 -258 46 -96 164 -118 241 -46 55 51 59 80 56 388 l-3
281 -28 36 c-45 59 -70 67 -204 67 -77 -1 -126 -5 -141 -14z m280 -75 l33 -29
3 -243 c4 -279 0 -318 -34 -359 -34 -40 -93 -42 -129 -5 l-25 24 0 244 c0 260
-1 267 -51 267 -36 0 -79 36 -79 66 0 13 9 33 20 44 17 17 33 20 125 20 102 0
106 -1 137 -29z"/>
<path d="M598 3 c332 -2 872 -2 1200 0 328 1 57 2 -603 2 -660 0 -929 -1 -597
-2z"/>
</g>
</svg>
