<?xml version="1.0" standalone="no"?>
<!DOCTYPE svg PUBLIC "-//W3C//DTD SVG 20010904//EN"
 "http://www.w3.org/TR/2001/REC-SVG-20010904/DTD/svg10.dtd">
<svg version="1.0" xmlns="http://www.w3.org/2000/svg"
 width="243.000000pt" height="241.000000pt" viewBox="0 0 243.000000 241.000000"
 preserveAspectRatio="xMidYMid meet">

<g transform="translate(0.000000,241.000000) scale(0.100000,-0.100000)"
fill="#000000" stroke="none">
<path d="M5 1205 c0 -666 1 -939 2 -608 2 331 2 875 0 1210 -1 334 -2 64 -2
-602z"/>
<path d="M424 2342 c-276 -98 -340 -463 -112 -642 48 -38 141 -80 178 -80 20
0 20 -11 20 -676 l0 -676 34 -34 34 -34 627 0 c559 0 630 2 654 16 58 34 56
14 59 594 1 294 0 545 -3 556 -7 29 -31 37 -50 18 -13 -13 -15 -84 -15 -554 0
-476 -2 -540 -16 -554 -14 -14 -84 -16 -624 -16 l-609 0 -15 22 c-14 20 -16
101 -16 680 l0 658 28 0 c36 1 130 40 174 73 l35 27 299 0 c164 0 309 3 322 6
18 5 22 13 20 33 l-3 26 -293 3 -292 2 20 40 20 40 273 2 272 3 0 25 0 25
-269 3 c-238 2 -267 4 -262 18 3 9 6 29 6 45 l0 29 294 0 294 0 4 -135 3 -135
33 -32 32 -33 135 -3 135 -4 0 -88 c0 -100 5 -120 29 -120 33 0 41 22 41 109
0 142 -3 146 -174 320 -91 93 -167 161 -191 172 -36 17 -69 19 -345 19 l-305
0 -23 53 c-39 90 -110 147 -120 95 -2 -9 13 -40 32 -68 43 -63 56 -106 56
-191 0 -245 -294 -387 -492 -236 -144 110 -162 319 -40 458 68 77 213 117 312
86 54 -16 70 -13 70 17 0 33 -41 48 -140 53 -64 3 -97 -1 -136 -15z m1271
-482 l110 -110 -101 0 c-82 0 -104 3 -115 17 -16 18 -27 203 -12 203 4 0 58
-49 118 -110z"/>
<path d="M631 2146 c-5 -13 -19 -26 -31 -29 -29 -8 -24 -51 7 -55 14 -2 23
-11 25 -25 2 -16 10 -22 28 -22 18 0 26 6 28 22 2 14 11 23 25 25 33 5 35 45
4 57 -13 5 -27 19 -30 30 -7 29 -45 27 -56 -3z"/>
<path d="M453 2108 c-17 -21 -103 -252 -103 -275 0 -11 7 -23 15 -27 18 -6 55
27 55 49 0 11 13 15 54 15 51 0 55 -2 75 -36 22 -36 37 -40 54 -13 7 11 -4 53
-38 145 -54 143 -60 154 -85 154 -10 0 -22 -6 -27 -12z m44 -143 c11 -34 11
-35 -18 -35 -33 0 -32 -2 -18 39 14 40 23 39 36 -4z"/>
<path d="M801 1626 c-42 -24 -50 -53 -51 -179 0 -118 0 -119 29 -148 29 -29
30 -29 155 -29 118 0 127 1 153 24 28 24 28 26 31 149 l4 125 -30 33 -30 34
-119 3 c-85 1 -125 -2 -142 -12z m253 -78 c10 -38 7 -178 -4 -199 -10 -17 -22
-19 -113 -19 -67 0 -107 4 -115 12 -13 13 -17 183 -6 212 5 13 25 16 119 16
108 0 113 -1 119 -22z"/>
<path d="M946 1491 c-13 -14 -29 -20 -50 -18 -27 2 -31 -1 -31 -22 0 -14 11
-32 26 -43 22 -17 30 -18 49 -8 35 19 70 63 67 85 -3 27 -39 31 -61 6z"/>
<path d="M1190 1441 c-7 -15 -6 -23 6 -35 13 -14 48 -16 229 -16 117 0 220 3
229 6 9 3 16 16 16 29 0 13 -7 26 -16 29 -9 3 -114 6 -234 6 -206 0 -220 -1
-230 -19z"/>
<path d="M1190 1315 c-10 -12 -10 -18 0 -30 11 -13 47 -15 244 -13 l231 3 0
25 0 25 -231 3 c-197 2 -233 0 -244 -13z"/>
<path d="M800 1177 c-43 -22 -51 -51 -48 -184 4 -165 5 -167 164 -171 186 -6
204 11 204 183 0 117 -11 153 -55 173 -35 16 -232 16 -265 -1z m244 -63 c12
-12 16 -37 16 -109 0 -122 -3 -125 -121 -125 -129 0 -129 0 -129 120 0 128 2
130 125 130 72 0 97 -4 109 -16z"/>
<path d="M947 1043 c-10 -10 -32 -18 -50 -18 -23 0 -33 -5 -35 -18 -5 -26 26
-57 58 -57 32 0 93 59 88 86 -4 25 -39 29 -61 7z"/>
<path d="M1192 993 c-21 -41 -11 -43 239 -43 l240 0 -3 28 -3 27 -232 3 c-213
2 -233 1 -241 -15z"/>
<path d="M1186 864 c-16 -41 5 -44 248 -42 l231 3 0 25 0 25 -236 3 c-212 2
-237 1 -243 -14z"/>
<path d="M779 711 c-29 -29 -29 -31 -29 -145 0 -179 15 -196 180 -196 117 0
161 15 180 60 7 18 11 71 8 145 -3 114 -4 117 -31 141 -26 23 -35 24 -153 24
-125 0 -126 0 -155 -29z m271 -50 c11 -21 14 -161 4 -198 -6 -22 -11 -23 -119
-23 -94 0 -114 3 -119 16 -11 29 -7 199 6 212 8 8 48 12 115 12 91 0 103 -2
113 -19z"/>
<path d="M867 623 c-12 -11 -7 -40 8 -53 14 -12 14 -15 0 -30 -19 -21 -19 -34
0 -50 12 -10 20 -9 39 3 21 14 25 14 39 0 32 -32 73 13 43 46 -15 16 -15 19
-1 31 21 17 15 54 -8 58 -10 2 -27 -4 -36 -12 -16 -15 -19 -15 -31 -1 -13 15
-42 20 -53 8z"/>
<path d="M1190 545 c-10 -12 -10 -18 0 -30 11 -13 47 -15 244 -13 l231 3 0 25
0 25 -231 3 c-197 2 -233 0 -244 -13z"/>
<path d="M1196 424 c-12 -12 -13 -20 -6 -35 10 -18 22 -19 243 -17 l232 3 3
24 c2 13 -2 28 -10 32 -7 5 -111 9 -230 9 -184 0 -219 -2 -232 -16z"/>
</g>
</svg>
