<?xml version="1.0" standalone="no"?>
<!DOCTYPE svg PUBLIC "-//W3C//DTD SVG 20010904//EN"
 "http://www.w3.org/TR/2001/REC-SVG-20010904/DTD/svg10.dtd">
<svg version="1.0" xmlns="http://www.w3.org/2000/svg"
 width="243.000000pt" height="238.000000pt" viewBox="0 0 243.000000 238.000000"
 preserveAspectRatio="xMidYMid meet">

<g transform="translate(0.000000,238.000000) scale(0.100000,-0.100000)"
fill="#000000" stroke="none">
<path d="M5 1190 c0 -657 1 -926 2 -597 2 328 2 866 0 1195 -1 328 -2 59 -2
-598z"/>
<path d="M602 2190 c-14 -14 -22 -33 -22 -55 l0 -35 -95 0 c-77 0 -101 -4
-131 -21 -46 -25 -64 -43 -64 -63 0 -8 -4 -18 -10 -21 -7 -4 -10 -295 -10
-839 0 -888 -1 -862 47 -904 49 -43 26 -42 899 -42 605 0 841 3 857 11 34 19
65 52 76 82 16 42 15 1652 -1 1698 -13 38 -50 79 -72 79 -8 0 -18 5 -21 10 -3
6 -52 10 -111 10 l-104 0 0 43 c0 66 -44 84 -82 32 -4 -5 -8 -25 -8 -42 l0
-33 -150 0 -150 0 0 43 c0 32 -5 45 -20 55 -18 11 -24 9 -45 -12 -16 -16 -25
-36 -25 -56 l0 -30 -150 0 -150 0 0 43 c0 32 -5 45 -21 55 -18 12 -24 11 -45
-9 -16 -15 -24 -34 -24 -56 l0 -33 -145 0 -145 0 0 33 c0 23 -8 40 -25 55 -30
27 -26 26 -53 2z m-22 -213 c0 -24 -7 -52 -15 -63 -21 -27 -19 -87 4 -115 14
-18 29 -24 61 -24 32 0 47 6 61 24 23 28 25 96 4 117 -9 9 -15 34 -15 60 l0
44 145 0 145 0 0 -40 c0 -22 -9 -57 -21 -79 -24 -46 -20 -69 18 -107 21 -21
32 -25 61 -20 53 8 72 31 72 85 0 35 -5 50 -20 61 -15 11 -20 26 -20 57 l0 43
150 0 150 0 0 -48 c0 -34 -6 -54 -20 -70 -37 -39 -15 -103 44 -125 33 -13 83
3 95 29 18 41 14 98 -9 114 -15 11 -20 26 -20 57 l0 43 150 0 150 0 0 -47 c0
-32 -7 -56 -20 -73 -26 -34 -25 -59 6 -95 22 -25 32 -30 70 -29 55 1 73 22 74
84 0 34 -5 49 -20 60 -15 11 -20 26 -20 57 l0 43 106 0 c78 0 109 -4 120 -14
11 -11 14 -49 14 -175 l0 -161 -864 0 c-778 0 -864 2 -870 16 -3 9 -6 74 -6
146 0 115 2 133 21 159 20 29 21 29 120 29 l99 0 0 -43z m1500 -1020 c0 -487
-3 -646 -12 -655 -9 -9 -211 -12 -847 -12 -460 0 -841 4 -847 8 -33 21 -34 50
-34 670 0 340 3 622 7 625 3 4 395 7 870 7 l863 0 0 -643z"/>
<path d="M473 1493 c-9 -3 -13 -33 -13 -99 l0 -95 103 3 102 3 3 83 c2 53 -1
89 -9 98 -8 10 -34 14 -93 13 -44 0 -87 -3 -93 -6z"/>
<path d="M797 1493 c-4 -3 -7 -48 -7 -100 l0 -93 100 0 100 0 0 94 c0 76 -3
95 -16 100 -21 8 -169 8 -177 -1z"/>
<path d="M1120 1400 l0 -100 100 0 100 0 0 94 c0 76 -3 95 -16 100 -9 3 -54 6
-100 6 l-84 0 0 -100z"/>
<path d="M1453 1492 c-10 -6 -17 -96 -14 -175 1 -16 11 -17 104 -15 l102 3 3
83 c2 53 -1 89 -9 98 -12 15 -164 20 -186 6z"/>
<path d="M1778 1489 c-15 -8 -18 -24 -18 -84 0 -109 -4 -105 111 -105 l99 0 0
94 c0 76 -3 95 -16 100 -26 10 -158 6 -176 -5z"/>
<path d="M460 1090 l0 -100 100 0 c116 0 113 -4 108 120 l-3 75 -102 3 -103 3
0 -101z"/>
<path d="M790 1090 l0 -100 100 0 100 0 0 100 0 100 -100 0 -100 0 0 -100z"/>
<path d="M1120 1090 l0 -100 100 0 100 0 0 100 0 100 -100 0 -100 0 0 -100z"/>
<path d="M1438 1181 c-1 -6 -2 -51 0 -101 l3 -90 100 0 c115 0 112 -4 107 120
l-3 75 -102 3 c-62 2 -102 -1 -105 -7z"/>
<path d="M1766 1174 c-3 -9 -6 -46 -6 -84 0 -103 -3 -100 111 -100 l99 0 0
100 0 100 -99 0 c-81 0 -100 -3 -105 -16z"/>
<path d="M467 883 c-4 -3 -7 -48 -7 -100 l0 -94 103 3 102 3 3 75 c5 123 7
120 -102 120 -51 0 -96 -3 -99 -7z"/>
<path d="M790 790 l0 -100 100 0 100 0 0 100 0 100 -100 0 -100 0 0 -100z"/>
<path d="M1120 790 l0 -100 100 0 101 0 -3 98 -3 97 -97 3 -98 3 0 -101z"/>
<path d="M1447 883 c-4 -3 -7 -48 -7 -100 l0 -94 103 3 102 3 3 75 c5 123 7
120 -102 120 -51 0 -96 -3 -99 -7z"/>
<path d="M1766 874 c-3 -9 -6 -46 -6 -84 0 -103 -3 -100 111 -100 l99 0 0 100
0 100 -99 0 c-81 0 -100 -3 -105 -16z"/>
<path d="M462 483 l3 -98 94 -3 c69 -2 97 1 103 10 4 7 8 52 8 101 l0 87 -105
0 -106 0 3 -97z"/>
<path d="M790 480 l0 -100 100 0 100 0 0 100 0 100 -100 0 -100 0 0 -100z"/>
</g>
</svg>
