<?xml version="1.0" standalone="no"?>
<!DOCTYPE svg PUBLIC "-//W3C//DTD SVG 20010904//EN"
 "http://www.w3.org/TR/2001/REC-SVG-20010904/DTD/svg10.dtd">
<svg version="1.0" xmlns="http://www.w3.org/2000/svg"
 width="242.000000pt" height="243.000000pt" viewBox="0 0 242.000000 243.000000"
 preserveAspectRatio="xMidYMid meet">

<g transform="translate(0.000000,243.000000) scale(0.100000,-0.100000)"
fill="#000000" stroke="none">
<path d="M640 2063 c-28 -10 -66 -37 -101 -72 -94 -95 -90 -56 -87 -807 l3
-649 30 -54 c33 -59 76 -99 145 -133 45 -23 45 -23 568 -23 l524 0 25 29 c29
34 26 77 -8 111 -19 19 -36 20 -532 25 -565 6 -538 2 -576 71 -21 36 -21 48
-21 640 0 673 -2 649 69 696 l34 23 499 0 500 0 29 29 c16 16 29 37 29 46 0
24 -27 72 -45 79 -9 3 -247 6 -528 5 -441 0 -518 -3 -557 -16z"/>
<path d="M1681 1614 c-21 -26 -26 -58 -15 -87 3 -8 59 -65 124 -126 l119 -110
-374 -3 -373 -3 -26 -24 c-35 -33 -35 -83 -1 -116 l24 -25 378 0 378 -1 -40
-36 c-180 -164 -215 -202 -215 -235 1 -37 14 -59 48 -77 37 -20 68 -5 146 67
291 272 347 327 352 346 3 12 1 32 -4 45 -4 13 -102 110 -218 217 -193 179
-212 194 -246 194 -28 0 -42 -6 -57 -26z"/>
<path d="M598 3 c332 -2 872 -2 1200 0 328 1 57 2 -603 2 -660 0 -929 -1 -597
-2z"/>
</g>
</svg>
