<?xml version="1.0" standalone="no"?>
<!DOCTYPE svg PUBLIC "-//W3C//DTD SVG 20010904//EN"
 "http://www.w3.org/TR/2001/REC-SVG-20010904/DTD/svg10.dtd">
<svg version="1.0" xmlns="http://www.w3.org/2000/svg"
 width="329.000000pt" height="330.000000pt" viewBox="0 0 329.000000 330.000000"
 preserveAspectRatio="xMidYMid meet">

<g transform="translate(0.000000,330.000000) scale(0.100000,-0.100000)"
fill="#000000" stroke="none">
<path d="M1560 2905 c-49 -16 -110 -34 -205 -61 -81 -22 -155 -44 -185 -56
-14 -6 -45 -14 -70 -18 -25 -5 -70 -16 -100 -26 -99 -29 -144 -43 -198 -58
-81 -22 -107 -56 -44 -56 14 0 44 -6 67 -14 57 -19 130 -41 205 -61 36 -9 74
-21 85 -26 11 -4 36 -11 55 -15 19 -3 41 -10 50 -15 8 -4 35 -12 60 -18 43 -9
89 -21 203 -56 143 -44 176 -47 252 -23 92 29 160 49 195 58 144 37 210 59
210 71 0 3 -33 9 -74 12 -41 3 -83 10 -94 16 -12 6 -49 11 -84 11 -35 1 -81 7
-103 15 -47 17 -107 19 -121 5 -17 -17 -81 15 -88 44 -17 67 47 103 127 72 24
-9 63 -16 87 -17 25 0 68 -5 95 -10 28 -6 90 -14 138 -18 49 -5 94 -14 100
-20 15 -15 -141 -15 -180 0 -15 6 -66 15 -113 19 -47 5 -111 14 -144 21 -54
12 -60 11 -72 -6 -19 -26 -18 -32 9 -50 19 -12 29 -13 54 -3 24 9 40 8 81 -5
28 -10 75 -17 104 -17 29 0 69 -5 88 -11 19 -7 71 -15 115 -19 44 -4 113 -13
153 -20 l72 -12 0 -217 c0 -119 -4 -222 -9 -230 -5 -8 -3 -24 5 -41 11 -22 12
-38 3 -81 -7 -30 -12 -70 -13 -89 -1 -34 0 -35 39 -35 l40 0 -3 64 c-2 36 -7
74 -12 85 -4 12 -3 32 2 46 5 14 9 137 8 275 -1 291 1 285 -89 285 -63 0 -101
8 -101 21 0 5 33 9 73 9 52 0 82 -5 108 -19 35 -19 95 -17 128 3 7 4 32 11 57
14 25 4 45 12 46 17 0 11 -60 36 -147 60 -33 9 -71 20 -85 24 -14 5 -51 15
-83 24 -31 9 -81 23 -110 31 -97 28 -162 46 -207 60 -25 8 -72 21 -105 31 -33
9 -71 21 -84 26 -44 18 -143 20 -191 4z"/>
<path d="M1074 2199 c8 -328 15 -389 57 -503 90 -242 297 -406 514 -406 208 0
399 136 500 355 52 113 66 179 71 345 16 474 16 490 0 496 -16 6 -63 -3 -156
-31 -181 -53 -234 -69 -303 -91 -79 -24 -133 -28 -180 -12 -23 8 -69 23 -102
32 -59 17 -89 26 -210 61 -33 10 -70 21 -81 25 -12 5 -43 12 -69 16 l-48 7 7
-294z m366 -100 c124 -12 307 -8 535 10 72 6 114 5 123 -1 23 -20 9 -262 -22
-350 -40 -118 -119 -229 -203 -287 -121 -83 -268 -94 -397 -30 -129 64 -242
223 -272 383 -18 93 -19 282 -1 289 13 6 49 3 237 -14z"/>
<path d="M1008 1265 c-163 -45 -316 -181 -376 -335 -26 -67 -41 -205 -42 -371
0 -128 3 -169 14 -178 10 -8 293 -10 1052 -9 l1039 3 0 225 c0 228 -3 256 -43
355 -21 52 -90 143 -145 191 -52 46 -172 107 -240 123 -26 6 -104 11 -173 11
l-127 0 -66 -49 c-109 -80 -128 -86 -273 -86 -87 1 -132 5 -140 13 -7 7 -19
12 -28 12 -10 0 -54 25 -99 55 l-82 55 -112 -1 c-62 -1 -133 -7 -159 -14z"/>
</g>
</svg>
