<?xml version="1.0" standalone="no"?>
<!DOCTYPE svg PUBLIC "-//W3C//DTD SVG 20010904//EN"
 "http://www.w3.org/TR/2001/REC-SVG-20010904/DTD/svg10.dtd">
<svg version="1.0" xmlns="http://www.w3.org/2000/svg"
 width="341.000000pt" height="341.000000pt" viewBox="0 0 341.000000 341.000000"
 preserveAspectRatio="xMidYMid meet">

<g transform="translate(0.000000,341.000000) scale(0.100000,-0.100000)"
fill="#000000" stroke="none">
<path d="M1603 2762 c-54 -48 -285 -254 -513 -457 -480 -426 -522 -464 -518
-475 2 -4 29 -35 60 -69 l56 -63 84 74 c46 41 202 179 348 308 146 128 288
254 315 279 53 48 85 77 201 178 l71 62 54 -47 c29 -26 258 -226 507 -444 249
-219 457 -398 461 -398 13 0 122 121 119 130 -4 13 -1129 1010 -1138 1010 -5
0 -53 -40 -107 -88z"/>
<path d="M870 2470 l0 -211 120 107 121 107 -3 101 -3 101 -117 3 -118 3 0
-211z"/>
<path d="M1660 2377 c-42 -39 -302 -266 -496 -433 -89 -76 -203 -176 -271
-238 l-43 -39 0 -548 0 -549 285 0 285 0 0 285 0 285 288 -2 287 -3 3 -283 2
-282 285 0 285 0 0 568 0 567 -102 86 c-323 269 -757 629 -760 629 -2 0 -23
-19 -48 -43z"/>
</g>
</svg>
