<?xml version="1.0" standalone="no"?>
<!DOCTYPE svg PUBLIC "-//W3C//DTD SVG 20010904//EN"
 "http://www.w3.org/TR/2001/REC-SVG-20010904/DTD/svg10.dtd">
<svg version="1.0" xmlns="http://www.w3.org/2000/svg"
 width="243.000000pt" height="243.000000pt" viewBox="0 0 243.000000 243.000000"
 preserveAspectRatio="xMidYMid meet">

<g transform="translate(0.000000,243.000000) scale(0.100000,-0.100000)"
fill="#000000" stroke="none">
<path d="M950 2147 c-115 -26 -206 -90 -270 -189 -110 -169 -85 -391 59 -532
l49 -49 -76 -37 c-220 -106 -374 -309 -418 -550 -20 -113 -18 -186 6 -210 19
-19 33 -20 495 -20 444 0 476 -1 481 -17 21 -66 80 -167 123 -210 257 -261
690 -148 795 206 45 151 -1 332 -114 450 -98 102 -196 143 -347 145 l-102 2
-63 61 c-72 68 -167 133 -234 159 -24 9 -44 18 -44 21 0 2 16 18 36 35 122
107 172 309 115 460 -77 201 -291 321 -491 275z m215 -136 c63 -28 119 -81
153 -146 23 -43 27 -62 27 -135 -1 -100 -21 -152 -87 -218 -66 -67 -117 -87
-223 -87 -81 0 -95 3 -144 30 -101 56 -161 158 -161 275 0 140 87 254 230 301
43 14 152 4 205 -20z m63 -740 c75 -23 179 -84 242 -141 l45 -40 -25 -18
c-123 -84 -201 -208 -225 -354 l-6 -38 -429 0 -430 0 0 30 c0 59 23 137 67
230 80 167 231 290 415 340 93 26 251 21 346 -9z m665 -286 c76 -37 149 -117
177 -193 31 -81 25 -215 -12 -287 -37 -71 -121 -147 -193 -174 -79 -30 -205
-26 -277 8 -200 96 -269 346 -145 527 39 57 122 118 187 139 74 24 192 15 263
-20z"/>
<path d="M1934 807 c-10 -5 -68 -59 -128 -119 l-109 -109 -81 80 c-87 86 -117
99 -149 63 -33 -36 -21 -58 92 -172 89 -89 115 -110 138 -110 24 0 55 26 176
148 81 82 147 155 147 163 0 22 -27 56 -48 61 -11 3 -28 1 -38 -5z"/>
<path d="M602 3 c335 -2 881 -2 1215 0 335 1 61 2 -607 2 -668 0 -942 -1 -608
-2z"/>
</g>
</svg>
