<?xml version="1.0" standalone="no"?>
<!DOCTYPE svg PUBLIC "-//W3C//DTD SVG 20010904//EN"
 "http://www.w3.org/TR/2001/REC-SVG-20010904/DTD/svg10.dtd">
<svg version="1.0" xmlns="http://www.w3.org/2000/svg"
 width="241.000000pt" height="243.000000pt" viewBox="0 0 241.000000 243.000000"
 preserveAspectRatio="xMidYMid meet">

<g transform="translate(0.000000,243.000000) scale(0.100000,-0.100000)"
fill="#000000" stroke="none">
<path d="M612 1888 c3 -305 4 -314 26 -360 31 -61 94 -118 225 -200 59 -37
107 -71 107 -75 0 -4 -54 -41 -120 -82 -145 -89 -200 -145 -224 -229 -13 -48
-16 -109 -16 -345 l0 -287 535 0 535 0 0 300 c0 276 -2 303 -20 353 -27 73
-80 123 -222 210 -65 40 -116 76 -114 82 1 5 54 42 117 82 143 91 192 137 218
209 20 51 21 76 21 354 l0 300 -536 0 -535 0 3 -312z m976 -37 l-3 -269 -30
-44 c-23 -32 -67 -66 -175 -133 -109 -69 -146 -97 -156 -120 -23 -57 -2 -81
155 -179 129 -80 191 -134 191 -164 0 -9 -110 -12 -425 -12 -362 0 -425 2
-425 14 0 28 66 83 197 165 73 46 138 90 145 98 18 22 15 81 -5 100 -9 10 -79
56 -155 103 -100 63 -145 98 -167 129 l-30 43 -3 269 -3 269 446 0 446 0 -3
-269z"/>
<path d="M598 3 c332 -2 872 -2 1200 0 328 1 57 2 -603 2 -660 0 -929 -1 -597
-2z"/>
</g>
</svg>
